<?xml version="1.0" encoding="UTF-8" standalone="no"?>
<svg
   xmlns:dc="http://purl.org/dc/elements/1.1/"
   xmlns:cc="http://creativecommons.org/ns#"
   xmlns:rdf="http://www.w3.org/1999/02/22-rdf-syntax-ns#"
   xmlns:svg="http://www.w3.org/2000/svg"
   xmlns="http://www.w3.org/2000/svg"
   xmlns:sodipodi="http://sodipodi.sourceforge.net/DTD/sodipodi-0.dtd"
   xmlns:inkscape="http://www.inkscape.org/namespaces/inkscape"
   width="11.595185"
   height="7.4810004"
   viewBox="0 0 11.595185 7.4810004"
   version="1.1"
   id="svg1029"
   sodipodi:docname="down.svg"
   style="fill:none"
   inkscape:version="0.92.5 (2060ec1f9f, 2020-04-08)">
  <metadata
     id="metadata1035">
    <rdf:RDF>
      <cc:Work
         rdf:about="">
        <dc:format>image/svg+xml</dc:format>
        <dc:type
           rdf:resource="http://purl.org/dc/dcmitype/StillImage" />
        <dc:title></dc:title>
      </cc:Work>
    </rdf:RDF>
  </metadata>
  <defs
     id="defs1033" />
  <sodipodi:namedview
     pagecolor="#ffffff"
     bordercolor="#666666"
     borderopacity="1"
     objecttolerance="10"
     gridtolerance="10"
     guidetolerance="10"
     inkscape:pageopacity="0"
     inkscape:pageshadow="2"
     inkscape:window-width="1366"
     inkscape:window-height="711"
     id="namedview1031"
     showgrid="false"
     showborder="false"
     fit-margin-top="0"
     fit-margin-left="0"
     fit-margin-right="0"
     fit-margin-bottom="0"
     inkscape:zoom="14.75"
     inkscape:cx="5.7983408"
     inkscape:cy="3.481"
     inkscape:window-x="0"
     inkscape:window-y="0"
     inkscape:window-maximized="1"
     inkscape:current-layer="svg1029" />
  <path
     d="m 5.0453508,7.1400003 -4.796,-5.482 c -0.566,-0.645 -0.106,-1.65799995347225 0.753,-1.65799995347225 H 10.594341 C 10.786641,-1.5965347e-4 10.974841,0.05509035 11.136441,0.15914035 c 0.1617,0.10405 0.2899,0.2525 0.3694,0.42755 0.0794,0.17506 0.1067,0.36931 0.0786,0.55948995 -0.0281,0.19018 -0.1104,0.36823 -0.2371,0.51282 l -4.7959902,5.48 c -0.09386,0.1074 -0.20961,0.1935 -0.33949,0.2525 -0.12988,0.059 -0.27087,0.0895 -0.41351,0.0895 -0.14264,0 -0.28363,-0.0305 -0.41351,-0.0895 -0.12987,-0.059 -0.24563,-0.1451 -0.33949,-0.2525 z"
     id="path1027"
     style="fill:#df9047;fill-opacity:1"
     inkscape:connector-curvature="0" />
</svg>
